<?xml version="1.0" encoding="UTF-8"?>
<svg xmlns="http://www.w3.org/2000/svg" version="1.1" viewBox="0 0 800 200">
  <!-- Generator: Adobe Illustrator 29.4.0, SVG Export Plug-In . SVG Version: 2.1.0 Build 152)  -->
  <defs>
    <style>
      .st0 {
        fill: #921a1d;
      }

      .st1 {
        display: none;
      }

      .st2 {
        fill: #1d1d1b;
      }
    </style>
  </defs>
  <g id="_레이어_1" data-name="레이어_1" class="st1">
    <path d="M457.16,129.39l-11.41-36.49c-.72-2.23-2.06-7.3-4.03-15.21h-.45c-1.51,6.62-2.84,11.73-3.97,15.32l-11.75,36.38h-10.9l-16.97-62.2h9.87c4.01,15.63,7.06,27.52,9.14,35.7,2.12,8.17,3.33,13.68,3.63,16.51h.45c.42-2.16,1.08-4.94,1.99-8.34.95-3.44,1.76-6.17,2.44-8.17l11.41-35.7h10.21l11.12,35.7c2.12,6.51,3.56,11.97,4.31,16.4h.45c.15-1.36.55-3.46,1.19-6.3.68-2.84,4.63-18.1,11.86-45.8h9.76l-17.2,62.2h-11.18ZM535.02,129.39l-1.87-8.85h-.45c-3.1,3.9-6.2,6.55-9.31,7.95-3.06,1.36-6.9,2.04-11.52,2.04-6.17,0-11.01-1.59-14.53-4.77-3.48-3.18-5.22-7.7-5.22-13.56,0-12.56,10.04-19.14,30.13-19.75l10.55-.34v-3.86c0-4.88-1.06-8.47-3.18-10.78-2.08-2.35-5.43-3.52-10.04-3.52-5.18,0-11.05,1.59-17.59,4.77l-2.89-7.21c3.06-1.66,6.41-2.97,10.05-3.92,3.67-.95,7.34-1.42,11.01-1.42,7.42,0,12.9,1.65,16.46,4.94,3.59,3.29,5.39,8.57,5.39,15.83v42.45h-6.98ZM513.74,122.75c5.86,0,10.46-1.61,13.79-4.82,3.37-3.22,5.05-7.72,5.05-13.51v-5.62l-9.42.4c-7.49.26-12.9,1.44-16.23,3.52-3.29,2.04-4.94,5.24-4.94,9.59,0,3.4,1.02,6,3.06,7.77,2.08,1.78,4.97,2.67,8.68,2.67h0ZM589.78,66.06c2.76,0,5.24.23,7.43.68l-1.31,8.74c-2.57-.57-4.84-.85-6.81-.85-5.03,0-9.34,2.04-12.94,6.13-3.56,4.09-5.33,9.17-5.33,15.27v33.37h-9.42v-62.2h7.77l1.08,11.52h.45c2.31-4.05,5.09-7.17,8.34-9.36,3.25-2.19,6.83-3.29,10.73-3.29h0ZM648.86,121.05h-.51c-4.35,6.32-10.86,9.48-19.52,9.48-8.13,0-14.47-2.78-19.01-8.34-4.5-5.56-6.75-13.47-6.75-23.72s2.27-18.22,6.81-23.89c4.54-5.67,10.86-8.51,18.95-8.51s14.91,3.06,19.41,9.19h.74l-.4-4.48-.23-4.37v-25.31h9.42v88.3h-7.66l-1.25-8.34ZM630.02,122.64c6.43,0,11.09-1.74,13.96-5.22,2.91-3.52,4.37-9.17,4.37-16.97v-1.99c0-8.82-1.48-15.1-4.43-18.84-2.91-3.78-7.59-5.68-14.02-5.68-5.52,0-9.76,2.16-12.71,6.47-2.91,4.28-4.37,10.33-4.37,18.16s1.46,13.94,4.37,17.99c2.91,4.05,7.19,6.07,12.83,6.07h0ZM704.02,130.53c-9.19,0-16.46-2.8-21.79-8.4-5.3-5.6-7.95-13.37-7.95-23.32s2.46-17.99,7.38-23.89c4.96-5.9,11.6-8.85,19.92-8.85,7.79,0,13.96,2.57,18.5,7.72,4.54,5.11,6.81,11.86,6.81,20.26v5.96h-42.85c.19,7.3,2.02,12.84,5.5,16.63,3.52,3.78,8.46,5.68,14.81,5.68,6.7,0,13.32-1.4,19.86-4.2v8.4c-3.33,1.44-6.49,2.46-9.48,3.06-2.95.64-6.53.96-10.73.96h0ZM701.46,73.95c-4.99,0-8.99,1.63-11.97,4.88-2.95,3.25-4.69,7.76-5.22,13.51h32.52c0-5.94-1.32-10.48-3.97-13.62-2.65-3.18-6.43-4.77-11.35-4.77h0ZM785.51,129.39v-40.24c0-5.07-1.15-8.85-3.46-11.35-2.31-2.5-5.92-3.75-10.84-3.75-6.51,0-11.27,1.76-14.3,5.28-3.03,3.52-4.54,9.33-4.54,17.42v32.63h-9.42v-62.2h7.66l1.53,8.51h.45c1.93-3.06,4.63-5.43,8.12-7.09,3.48-1.7,7.36-2.55,11.63-2.55,7.49,0,13.13,1.82,16.91,5.45,3.78,3.59,5.67,9.36,5.67,17.31v40.58h-9.42Z"/>
    <path d="M213.24,129.39l-3.35-8.63h-.45c-2.91,3.67-5.92,6.22-9.02,7.66-3.06,1.4-7.07,2.1-12.03,2.1-6.09,0-10.9-1.74-14.41-5.22-3.48-3.48-5.22-8.44-5.22-14.87s2.35-11.69,7.04-14.87c4.73-3.22,11.84-4.99,21.34-5.33l11.01-.34v-2.78c0-6.43-3.29-9.65-9.87-9.65-5.07,0-11.03,1.53-17.88,4.6l-5.73-11.69c7.3-3.82,15.4-5.73,24.29-5.73s15.04,1.85,19.58,5.56c4.54,3.71,6.81,9.35,6.81,16.91v42.28h-12.09ZM208.13,99.99l-6.7.23c-5.03.15-8.78,1.06-11.24,2.72-2.46,1.66-3.69,4.2-3.69,7.6,0,4.88,2.8,7.32,8.4,7.32,4.01,0,7.21-1.15,9.59-3.46,2.42-2.31,3.63-5.37,3.63-9.19v-5.22ZM288.09,129.39l-2.33-8.12h-.91c-1.85,2.95-4.48,5.24-7.89,6.87-3.4,1.59-7.28,2.38-11.63,2.38-7.45,0-13.07-1.99-16.85-5.96-3.78-4.01-5.68-9.76-5.68-17.25v-41.37h17.31v37.06c0,4.58.81,8.02,2.44,10.33,1.63,2.27,4.22,3.4,7.77,3.4,4.84,0,8.34-1.61,10.5-4.82,2.16-3.25,3.23-8.63,3.23-16.12v-29.85h17.31v63.45h-13.28ZM336.84,129.39h-17.31V41.09h17.31v88.3ZM381.73,116.74c3.03,0,6.66-.66,10.9-1.99v12.88c-4.31,1.93-9.61,2.89-15.89,2.89-6.92,0-11.97-1.74-15.15-5.22-3.14-3.52-4.71-8.78-4.71-15.78v-30.59h-8.29v-7.32l9.53-5.79,4.99-13.39h11.07v13.51h17.76v13h-17.76v30.59c0,2.46.68,4.28,2.04,5.45,1.4,1.17,3.23,1.76,5.5,1.76h0Z"/>
    <path d="M51.98,33.95h-15.32s41.13,115.17,41.13,115.17h14.52l41.13-115.17h-15.16l-25.97,73.87c-1.72,4.73-3.17,9.19-4.35,13.39-1.18,4.09-2.15,8.01-2.9,11.77-.75-3.76-1.72-7.74-2.9-11.94-1.18-4.19-2.64-8.71-4.36-13.55l-25.81-73.55h0Z"/>
    <path d="M0,0"/>
    <path d="M406.1,185.44l-4.8-12.34h-15.8l-4.75,12.34h-5.08l15.58-40.04h4.52l15.52,40.04h-5.19ZM395.32,156.57c-.11-.3-.3-.84-.56-1.62-.26-.78-.52-1.58-.78-2.4-.22-.86-.41-1.51-.56-1.95-.26,1.15-.56,2.29-.89,3.41-.34,1.08-.61,1.94-.84,2.57l-4.52,12.06h12.62l-4.47-12.06ZM426.71,186c-3.72,0-6.7-1.28-8.93-3.85-2.23-2.61-3.35-6.48-3.35-11.62,0-5.14,1.12-9.01,3.35-11.62,2.27-2.64,5.27-3.96,8.99-3.96,2.31,0,4.19.43,5.64,1.28,1.49.86,2.7,1.9,3.63,3.13h.34c-.04-.48-.11-1.19-.22-2.12-.07-.97-.11-1.73-.11-2.29v-11.95h4.91v42.44h-3.96l-.73-4.02h-.22c-.89,1.27-2.08,2.35-3.57,3.24-1.49.89-3.41,1.34-5.75,1.34h0ZM427.49,181.92c3.16,0,5.38-.86,6.65-2.57,1.3-1.75,1.95-4.37,1.95-7.87v-.89c0-3.72-.61-6.57-1.84-8.54-1.23-2.01-3.5-3.02-6.81-3.02-2.64,0-4.63,1.06-5.98,3.18-1.3,2.08-1.95,4.9-1.95,8.43,0,3.57.65,6.35,1.95,8.32,1.34,1.97,3.35,2.96,6.03,2.96h0ZM483.28,154.95c3.39,0,5.92.87,7.59,2.62,1.68,1.71,2.51,4.5,2.51,8.38v19.49h-4.86v-19.27c0-4.73-2.03-7.09-6.09-7.09-2.9,0-4.99.84-6.25,2.51-1.23,1.68-1.84,4.11-1.84,7.32v16.53h-4.86v-19.27c0-4.73-2.05-7.09-6.14-7.09-3.02,0-5.1.93-6.25,2.79-1.15,1.86-1.73,4.54-1.73,8.04v15.52h-4.91v-29.93h3.96l.73,4.08h.28c.93-1.56,2.18-2.72,3.74-3.46,1.6-.78,3.29-1.17,5.08-1.17,4.69,0,7.74,1.68,9.16,5.03h.28c1.01-1.71,2.36-2.98,4.08-3.8,1.75-.82,3.59-1.23,5.53-1.23h0ZM505.17,144.28c.74,0,1.4.26,1.95.78.6.48.89,1.27.89,2.35s-.3,1.82-.89,2.35c-.56.52-1.21.78-1.95.78-.82,0-1.51-.26-2.07-.78-.56-.52-.84-1.3-.84-2.35s.28-1.86.84-2.35c.56-.52,1.25-.78,2.07-.78ZM507.57,155.51v29.93h-4.91v-29.93h4.91ZM531.47,154.95c3.57,0,6.27.87,8.1,2.62,1.82,1.71,2.74,4.5,2.74,8.38v19.49h-4.86v-19.15c0-4.8-2.23-7.2-6.7-7.2-3.31,0-5.6.93-6.87,2.79s-1.9,4.54-1.9,8.04v15.52h-4.91v-29.93h3.96l.73,4.08h.28c.97-1.56,2.31-2.72,4.02-3.46,1.71-.78,3.52-1.17,5.42-1.17h0ZM583.85,149.42c-4.28,0-7.65,1.43-10.11,4.3-2.46,2.87-3.69,6.79-3.69,11.78s1.14,8.88,3.41,11.78c2.31,2.87,5.75,4.3,10.33,4.3,1.75,0,3.41-.15,4.97-.45,1.56-.3,3.09-.67,4.58-1.12v4.36c-1.49.56-3.03.97-4.64,1.23-1.56.26-3.44.39-5.64.39-4.06,0-7.45-.84-10.16-2.51-2.72-1.68-4.77-4.06-6.14-7.15-1.34-3.09-2.01-6.72-2.01-10.89s.73-7.56,2.18-10.61c1.49-3.09,3.67-5.49,6.53-7.2,2.87-1.75,6.35-2.62,10.44-2.62s7.87.78,11,2.35l-2.01,4.24c-1.23-.56-2.61-1.06-4.13-1.51-1.49-.45-3.13-.67-4.91-.67h0ZM627.41,170.42c0,4.95-1.27,8.79-3.8,11.5-2.49,2.72-5.88,4.08-10.16,4.08-2.64,0-5.01-.6-7.09-1.79-2.05-1.23-3.67-3-4.86-5.31-1.19-2.35-1.79-5.17-1.79-8.49,0-4.95,1.25-8.77,3.74-11.45,2.49-2.68,5.88-4.02,10.16-4.02,2.72,0,5.1.61,7.15,1.84,2.08,1.19,3.7,2.94,4.86,5.25,1.19,2.27,1.79,5.06,1.79,8.38h0ZM604.79,170.42c0,3.54.69,6.35,2.07,8.43,1.41,2.05,3.65,3.07,6.7,3.07s5.23-1.02,6.65-3.07c1.41-2.08,2.12-4.9,2.12-8.43s-.71-6.31-2.12-8.32c-1.41-2.01-3.65-3.02-6.7-3.02s-5.27,1.01-6.65,3.02c-1.38,2.01-2.07,4.78-2.07,8.32ZM649.58,154.95c3.57,0,6.27.87,8.1,2.62,1.82,1.71,2.74,4.5,2.74,8.38v19.49h-4.86v-19.15c0-4.8-2.23-7.2-6.7-7.2-3.31,0-5.6.93-6.87,2.79-1.27,1.86-1.9,4.54-1.9,8.04v15.52h-4.91v-29.93h3.96l.73,4.08h.28c.97-1.56,2.31-2.72,4.02-3.46,1.71-.78,3.52-1.17,5.42-1.17h0ZM689.17,177.18c0,2.9-1.08,5.1-3.24,6.59-2.16,1.49-5.06,2.23-8.71,2.23-2.08,0-3.89-.17-5.42-.5-1.49-.34-2.81-.8-3.96-1.4v-4.47c1.19.6,2.62,1.15,4.3,1.68,1.71.48,3.44.73,5.19.73,2.49,0,4.3-.39,5.42-1.17,1.12-.82,1.68-1.9,1.68-3.24,0-.74-.2-1.41-.61-2.01-.41-.6-1.15-1.19-2.23-1.79-1.04-.6-2.55-1.27-4.52-2.01-1.94-.74-3.59-1.49-4.97-2.23-1.38-.74-2.44-1.64-3.18-2.68-.74-1.04-1.12-2.38-1.12-4.02,0-2.53,1.02-4.49,3.07-5.86,2.08-1.38,4.8-2.07,8.15-2.07,1.82,0,3.52.19,5.08.56,1.6.34,3.09.82,4.47,1.45l-1.68,3.91c-1.27-.52-2.59-.97-3.96-1.34-1.38-.37-2.79-.56-4.24-.56-2.01,0-3.56.34-4.64,1.01-1.04.63-1.56,1.51-1.56,2.62,0,.82.24,1.53.73,2.12.48.56,1.28,1.12,2.4,1.68,1.15.52,2.68,1.15,4.58,1.9,1.9.71,3.52,1.43,4.86,2.18,1.34.74,2.36,1.66,3.07,2.74.71,1.04,1.06,2.36,1.06,3.96h0ZM722.45,170.42c0,4.95-1.27,8.79-3.8,11.5-2.49,2.72-5.88,4.08-10.16,4.08-2.64,0-5.01-.6-7.09-1.79-2.05-1.23-3.67-3-4.86-5.31-1.19-2.35-1.79-5.17-1.79-8.49,0-4.95,1.25-8.77,3.74-11.45,2.49-2.68,5.88-4.02,10.16-4.02,2.72,0,5.1.61,7.15,1.84,2.08,1.19,3.7,2.94,4.86,5.25,1.19,2.27,1.79,5.06,1.79,8.38h0ZM699.84,170.42c0,3.54.69,6.35,2.07,8.43,1.41,2.05,3.65,3.07,6.7,3.07s5.23-1.02,6.65-3.07c1.41-2.08,2.12-4.9,2.12-8.43s-.71-6.31-2.12-8.32-3.65-3.02-6.7-3.02-5.27,1.01-6.65,3.02-2.07,4.78-2.07,8.32ZM735.13,185.44h-4.91v-42.44h4.91v42.44ZM756.18,154.95c2.57,0,4.77.56,6.59,1.68,1.86,1.12,3.28,2.7,4.24,4.75,1.01,2.01,1.51,4.37,1.51,7.09v2.96h-20.49c.07,3.39.93,5.98,2.57,7.76,1.68,1.75,4,2.62,6.98,2.62,1.9,0,3.57-.17,5.03-.5,1.49-.37,3.02-.89,4.58-1.56v4.3c-1.53.67-3.03,1.15-4.52,1.45-1.49.34-3.26.5-5.31.5-2.83,0-5.34-.58-7.54-1.73-2.16-1.15-3.85-2.87-5.08-5.14-1.19-2.31-1.79-5.12-1.79-8.43s.54-6.09,1.62-8.43c1.12-2.35,2.66-4.15,4.64-5.42,2.01-1.27,4.34-1.9,6.98-1.9h0ZM756.13,158.97c-2.35,0-4.21.76-5.58,2.29-1.34,1.49-2.14,3.57-2.4,6.25h15.24c-.04-2.53-.63-4.58-1.79-6.14-1.15-1.6-2.98-2.4-5.47-2.4h0Z"/>
  </g>
  <g id="_레이어_2" data-name="레이어_2">
    <g>
      <g>
        <path class="st0" d="M185.81,34.97l-63.4-19.86c-11.82-3.77-25.07,4.27-29.34,17.82l-17.82,56.32c-4.26,13.7,1.9,27.91,13.72,31.52l63.4,20.04c11.99,3.79,25.23-4.25,29.5-17.99l17.82-56.14c4.24-13.72-1.91-27.89-13.89-31.69h0ZM191.5,61.95l-19.08,60.09c-2.37,7.71-10.73,11.83-18.45,9.45l-60.72-19.22c-7.88-2.38-12.29-10.73-9.78-18.3l18.93-60.09c2.36-7.73,10.71-11.98,18.62-9.47l60.7,19.11c7.72,2.51,12.15,10.71,9.78,18.44h0Z"/>
        <g>
          <path class="st0" d="M139.97,89.89c1.74-5.62-8.93-10.67-12.54-13.56-6.48-4.93-8.23-12.5-6.3-19.29-1.05,3.42-2.58,9.37-2.78,10.84-.81,6.03,1.24,12.31,6.88,16.58,2.56,2.05,8.66,5.18,11.38,8.85,1.59-.67,2.88-1.79,3.36-3.42Z"/>
          <path class="st0" d="M121.41,56.13c.07-.21.13-.42.2-.64-.07.19-.13.4-.2.64Z"/>
          <path class="st0" d="M138.52,108.21c-4.17.76-9.51-.42-13.27-1.86-5.04-1.9-16.88-10.55-17.74-13.29l-2.2,8.13c.85,2.75,12.7,11.4,17.72,13.3,3.77,1.43,9.1,2.59,13.29,1.85,4.34-.85,9.09-2.15,12.27-5.18,1.87-1.9,4.91-6.51,5.63-9.24.6-1.91.97-3.73,1.09-5.43-1.27,2.45-3.19,5.2-4.51,6.53-3.18,3.04-7.94,4.33-12.28,5.18Z"/>
          <path class="st0" d="M121.88,54.87c-.06.12-.11.25-.19.4.07-.19.16-.35.22-.52-.02.04-.03.08-.04.12h0Z"/>
          <path class="st0" d="M142.96,65.71c3.9,1.14,7.36,3.59,10.39,7.65l9.96-10.26c2.1-7.67.48-1.16,2.21-8.11l-9.96,10.24c-3.03-4.06-6.48-6.49-10.39-7.65-6.27-2.05-8.8,4-5.67,7.83.97-.19,2.13-.13,3.46.31h0Z"/>
          <path class="st0" d="M121.62,55.49c.03-.06.05-.15.07-.21-.03.08-.05.15-.07.21Z"/>
          <path class="st0" d="M121.12,57.04c.1-.33.19-.64.29-.91-.1.29-.2.6-.29.91Z"/>
        </g>
      </g>
      <g>
        <path class="st2" d="M318.26,31.37h-54.3c-11.54.01-20.87,9.34-20.87,20.88v18.79c0,11.53,9.33,20.88,20.87,20.88h49.27v18.78h-44.27v-6.26c0-2.31-1.84-4.18-4.16-4.18h-17.54c-2.32,0-4.18,1.88-4.18,4.18v6.26c0,11.53,9.33,20.88,20.87,20.88h54.3c11.5,0,20.88-9.35,20.88-20.88v-18.79c-.02-11.52-9.38-20.87-20.88-20.87h-49.29v-18.79h44.27v6.26c0,2.31,1.85,4.18,4.17,4.18h17.54c2.3,0,4.19-1.87,4.19-4.18v-6.26c0-11.53-9.38-20.88-20.88-20.88h0Z"/>
        <path class="st2" d="M459.89,31.36h-87.66c-2.33,0-4.18,1.87-4.18,4.18v12.53c0,2.31,1.85,4.18,4.18,4.18h30.88v75.16c0,2.31,1.86,4.18,4.19,4.18h17.52c2.33,0,4.18-1.87,4.18-4.18V52.23h30.9c2.32,0,4.19-1.87,4.19-4.18v-12.53c0-2.31-1.88-4.18-4.19-4.18h0Z"/>
        <path class="st2" d="M585.74,31.36h-88.49c-2.32,0-4.18,1.87-4.18,4.18v91.86c0,2.31,1.86,4.18,4.18,4.18h88.49c2.35,0,4.18-1.87,4.18-4.18v-12.52c0-2.31-1.84-4.18-4.18-4.18h-66.76v-18.8h66.76c2.35,0,4.18-1.87,4.18-4.17v-12.53c0-2.3-1.84-4.18-4.18-4.18h-66.76v-18.79h66.76c2.35,0,4.18-1.87,4.18-4.18v-12.53c0-2.31-1.84-4.18-4.18-4.18h0Z"/>
        <path class="st2" d="M724.78,124.35l-47.55-45.43c-.49-.38-.81-.97-.81-1.63,0-.55.23-1.03.59-1.41l41.46-37.3h-.04c.82-.76,1.35-1.84,1.35-3.05,0-2.3-1.88-4.18-4.19-4.18h-22.9c-1.11,0-2.11.44-2.86,1.14h0l-38.11,34.36h-7.05v-31.33c0-2.31-1.84-4.18-4.16-4.18h-17.54c-2.31,0-4.16,1.87-4.16,4.18v91.86c0,2.31,1.85,4.18,4.16,4.18h17.54c2.32,0,4.16-1.87,4.16-4.18v-39.67h6.47l44.87,42.61s.04.03.06.04l.06.07c.78.7,1.75,1.14,2.87,1.14h22.91c2.29,0,4.18-1.87,4.18-4.18,0-1.2-.54-2.28-1.34-3.04h.04Z"/>
      </g>
    </g>
    <path d="M363.67,185.5l-4.8-12.34h-15.8l-4.75,12.34h-5.08l15.58-40.04h4.52l15.52,40.04h-5.19ZM352.89,156.63c-.11-.3-.3-.84-.56-1.62-.26-.78-.52-1.58-.78-2.4-.22-.86-.41-1.51-.56-1.95-.26,1.15-.56,2.29-.89,3.41-.34,1.08-.61,1.94-.84,2.57l-4.52,12.06h12.62l-4.47-12.06ZM384.27,186.06c-3.72,0-6.7-1.28-8.93-3.85-2.23-2.61-3.35-6.48-3.35-11.62,0-5.14,1.12-9.01,3.35-11.62,2.27-2.64,5.27-3.96,8.99-3.96,2.31,0,4.19.43,5.64,1.28,1.49.86,2.7,1.9,3.63,3.13h.34c-.04-.48-.11-1.19-.22-2.12-.07-.97-.11-1.73-.11-2.29v-11.95h4.91v42.44h-3.96l-.73-4.02h-.22c-.89,1.27-2.08,2.35-3.57,3.24-1.49.89-3.41,1.34-5.75,1.34h0ZM385.06,181.99c3.16,0,5.38-.86,6.65-2.57,1.3-1.75,1.95-4.37,1.95-7.87v-.89c0-3.72-.61-6.57-1.84-8.54-1.23-2.01-3.5-3.02-6.81-3.02-2.64,0-4.63,1.06-5.98,3.18-1.3,2.08-1.95,4.9-1.95,8.43,0,3.57.65,6.35,1.95,8.32,1.34,1.97,3.35,2.96,6.03,2.96h0ZM440.84,155.01c3.39,0,5.92.87,7.59,2.62,1.68,1.71,2.51,4.5,2.51,8.38v19.49h-4.86v-19.27c0-4.73-2.03-7.09-6.09-7.09-2.9,0-4.99.84-6.25,2.51-1.23,1.68-1.84,4.11-1.84,7.32v16.53h-4.86v-19.27c0-4.73-2.05-7.09-6.14-7.09-3.02,0-5.1.93-6.25,2.79-1.15,1.86-1.73,4.54-1.73,8.04v15.52h-4.91v-29.93h3.96l.73,4.08h.28c.93-1.56,2.18-2.72,3.74-3.46,1.6-.78,3.29-1.17,5.08-1.17,4.69,0,7.74,1.68,9.16,5.03h.28c1.01-1.71,2.36-2.98,4.08-3.8,1.75-.82,3.59-1.23,5.53-1.23h0ZM462.74,144.35c.74,0,1.4.26,1.95.78.6.48.89,1.27.89,2.35s-.3,1.82-.89,2.35c-.56.52-1.21.78-1.95.78-.82,0-1.51-.26-2.07-.78-.56-.52-.84-1.3-.84-2.35s.28-1.86.84-2.35c.56-.52,1.25-.78,2.07-.78ZM465.14,155.57v29.93h-4.91v-29.93h4.91ZM489.04,155.01c3.57,0,6.27.87,8.1,2.62,1.82,1.71,2.74,4.5,2.74,8.38v19.49h-4.86v-19.15c0-4.8-2.23-7.2-6.7-7.2-3.31,0-5.6.93-6.87,2.79s-1.9,4.54-1.9,8.04v15.52h-4.91v-29.93h3.96l.73,4.08h.28c.97-1.56,2.31-2.72,4.02-3.46,1.71-.78,3.52-1.17,5.42-1.17h0ZM541.42,149.49c-4.28,0-7.65,1.43-10.11,4.3-2.46,2.87-3.69,6.79-3.69,11.78s1.14,8.88,3.41,11.78c2.31,2.87,5.75,4.3,10.33,4.3,1.75,0,3.41-.15,4.97-.45,1.56-.3,3.09-.67,4.58-1.12v4.36c-1.49.56-3.03.97-4.64,1.23-1.56.26-3.44.39-5.64.39-4.06,0-7.45-.84-10.16-2.51-2.72-1.68-4.77-4.06-6.14-7.15-1.34-3.09-2.01-6.72-2.01-10.89s.73-7.56,2.18-10.61c1.49-3.09,3.67-5.49,6.53-7.2,2.87-1.75,6.35-2.62,10.44-2.62s7.87.78,11,2.35l-2.01,4.24c-1.23-.56-2.61-1.06-4.13-1.51-1.49-.45-3.13-.67-4.91-.67h0ZM584.98,170.48c0,4.95-1.27,8.79-3.8,11.5-2.49,2.72-5.88,4.08-10.16,4.08-2.64,0-5.01-.6-7.09-1.79-2.05-1.23-3.67-3-4.86-5.31-1.19-2.35-1.79-5.17-1.79-8.49,0-4.95,1.25-8.77,3.74-11.45,2.49-2.68,5.88-4.02,10.16-4.02,2.72,0,5.1.61,7.15,1.84,2.08,1.19,3.7,2.94,4.86,5.25,1.19,2.27,1.79,5.06,1.79,8.38h0ZM562.36,170.48c0,3.54.69,6.35,2.07,8.43,1.41,2.05,3.65,3.07,6.7,3.07s5.23-1.02,6.65-3.07c1.41-2.08,2.12-4.9,2.12-8.43s-.71-6.31-2.12-8.32c-1.41-2.01-3.65-3.02-6.7-3.02s-5.27,1.01-6.65,3.02c-1.38,2.01-2.07,4.78-2.07,8.32ZM607.15,155.01c3.57,0,6.27.87,8.1,2.62,1.82,1.71,2.74,4.5,2.74,8.38v19.49h-4.86v-19.15c0-4.8-2.23-7.2-6.7-7.2-3.31,0-5.6.93-6.87,2.79-1.27,1.86-1.9,4.54-1.9,8.04v15.52h-4.91v-29.93h3.96l.73,4.08h.28c.97-1.56,2.31-2.72,4.02-3.46,1.71-.78,3.52-1.17,5.42-1.17h0ZM646.74,177.24c0,2.9-1.08,5.1-3.24,6.59-2.16,1.49-5.06,2.23-8.71,2.23-2.08,0-3.89-.17-5.42-.5-1.49-.34-2.81-.8-3.96-1.4v-4.47c1.19.6,2.62,1.15,4.3,1.68,1.71.48,3.44.73,5.19.73,2.49,0,4.3-.39,5.42-1.17,1.12-.82,1.68-1.9,1.68-3.24,0-.74-.2-1.41-.61-2.01-.41-.6-1.15-1.19-2.23-1.79-1.04-.6-2.55-1.27-4.52-2.01-1.94-.74-3.59-1.49-4.97-2.23-1.38-.74-2.44-1.64-3.18-2.68-.74-1.04-1.12-2.38-1.12-4.02,0-2.53,1.02-4.49,3.07-5.86,2.08-1.38,4.8-2.07,8.15-2.07,1.82,0,3.52.19,5.08.56,1.6.34,3.09.82,4.47,1.45l-1.68,3.91c-1.27-.52-2.59-.97-3.96-1.34-1.38-.37-2.79-.56-4.24-.56-2.01,0-3.56.34-4.64,1.01-1.04.63-1.56,1.51-1.56,2.62,0,.82.24,1.53.73,2.12.48.56,1.28,1.12,2.4,1.68,1.15.52,2.68,1.15,4.58,1.9,1.9.71,3.52,1.43,4.86,2.18,1.34.74,2.36,1.66,3.07,2.74.71,1.04,1.06,2.36,1.06,3.96h0ZM680.02,170.48c0,4.95-1.27,8.79-3.8,11.5-2.49,2.72-5.88,4.08-10.16,4.08-2.64,0-5.01-.6-7.09-1.79-2.05-1.23-3.67-3-4.86-5.31-1.19-2.35-1.79-5.17-1.79-8.49,0-4.95,1.25-8.77,3.74-11.45,2.49-2.68,5.88-4.02,10.16-4.02,2.72,0,5.1.61,7.15,1.84,2.08,1.19,3.7,2.94,4.86,5.25,1.19,2.27,1.79,5.06,1.79,8.38h0ZM657.4,170.48c0,3.54.69,6.35,2.07,8.43,1.41,2.05,3.65,3.07,6.7,3.07s5.23-1.02,6.65-3.07c1.41-2.08,2.12-4.9,2.12-8.43s-.71-6.31-2.12-8.32-3.65-3.02-6.7-3.02-5.27,1.01-6.65,3.02-2.07,4.78-2.07,8.32ZM692.7,185.5h-4.91v-42.44h4.91v42.44ZM713.75,155.01c2.57,0,4.77.56,6.59,1.68,1.86,1.12,3.28,2.7,4.24,4.75,1.01,2.01,1.51,4.37,1.51,7.09v2.96h-20.49c.07,3.39.93,5.98,2.57,7.76,1.68,1.75,4,2.62,6.98,2.62,1.9,0,3.57-.17,5.03-.5,1.49-.37,3.02-.89,4.58-1.56v4.3c-1.53.67-3.03,1.15-4.52,1.45-1.49.34-3.26.5-5.31.5-2.83,0-5.34-.58-7.54-1.73-2.16-1.15-3.85-2.87-5.08-5.14-1.19-2.31-1.79-5.12-1.79-8.43s.54-6.09,1.62-8.43c1.12-2.35,2.66-4.15,4.64-5.42,2.01-1.27,4.34-1.9,6.98-1.9h0ZM713.7,159.03c-2.35,0-4.21.76-5.58,2.29-1.34,1.49-2.14,3.57-2.4,6.25h15.24c-.04-2.53-.63-4.58-1.79-6.14-1.15-1.6-2.98-2.4-5.47-2.4h0Z"/>
  </g>
</svg>