<?xml version="1.0" encoding="UTF-8"?>
<svg xmlns="http://www.w3.org/2000/svg" version="1.1" viewBox="0 0 800 200">
  <!-- Generator: Adobe Illustrator 29.4.0, SVG Export Plug-In . SVG Version: 2.1.0 Build 152)  -->
  <defs>
    <style>
      .st0 {
        fill: #921a1d;
      }

      .st1 {
        display: none;
      }

      .st2 {
        fill: #1d1d1b;
      }
    </style>
  </defs>
  <g id="_레이어_1" data-name="레이어_1" class="st1">
    <g>
      <path d="M457.16-93.17l-11.41-36.49c-.72-2.23-2.06-7.3-4.03-15.21h-.45c-1.51,6.62-2.84,11.73-3.97,15.32l-11.75,36.38h-10.9l-16.97-62.2h9.87c4.01,15.63,7.06,27.52,9.14,35.7,2.12,8.17,3.33,13.68,3.63,16.51h.45c.42-2.16,1.08-4.94,1.99-8.34.95-3.44,1.76-6.17,2.44-8.17l11.41-35.7h10.21l11.12,35.7c2.12,6.51,3.56,11.97,4.31,16.4h.45c.15-1.36.55-3.46,1.19-6.3.68-2.84,4.63-18.1,11.86-45.8h9.76l-17.2,62.2h-11.18ZM535.02-93.17l-1.87-8.85h-.45c-3.1,3.9-6.2,6.55-9.31,7.95-3.06,1.36-6.9,2.04-11.52,2.04-6.17,0-11.01-1.59-14.53-4.77-3.48-3.18-5.22-7.7-5.22-13.56,0-12.56,10.04-19.14,30.13-19.75l10.55-.34v-3.86c0-4.88-1.06-8.47-3.18-10.78-2.08-2.35-5.43-3.52-10.04-3.52-5.18,0-11.05,1.59-17.59,4.77l-2.89-7.21c3.06-1.66,6.41-2.97,10.05-3.92,3.67-.95,7.34-1.42,11.01-1.42,7.42,0,12.9,1.65,16.46,4.94,3.59,3.29,5.39,8.57,5.39,15.83v42.45h-6.98ZM513.74-99.81c5.86,0,10.46-1.61,13.79-4.82,3.37-3.22,5.05-7.72,5.05-13.51v-5.62l-9.42.4c-7.49.26-12.9,1.44-16.23,3.52-3.29,2.04-4.94,5.24-4.94,9.59,0,3.4,1.02,6,3.06,7.77,2.08,1.78,4.97,2.67,8.68,2.67h0ZM589.78-156.5c2.76,0,5.24.23,7.43.68l-1.31,8.74c-2.57-.57-4.84-.85-6.81-.85-5.03,0-9.34,2.04-12.94,6.13-3.56,4.09-5.33,9.17-5.33,15.27v33.37h-9.42v-62.2h7.77l1.08,11.52h.45c2.31-4.05,5.09-7.17,8.34-9.36,3.25-2.19,6.83-3.29,10.73-3.29h0ZM648.86-101.51h-.51c-4.35,6.32-10.86,9.48-19.52,9.48-8.13,0-14.47-2.78-19.01-8.34-4.5-5.56-6.75-13.47-6.75-23.72s2.27-18.22,6.81-23.89c4.54-5.67,10.86-8.51,18.95-8.51s14.91,3.06,19.41,9.19h.74l-.4-4.48-.23-4.37v-25.31h9.42v88.3h-7.66l-1.25-8.34ZM630.02-99.92c6.43,0,11.09-1.74,13.96-5.22,2.91-3.52,4.37-9.17,4.37-16.97v-1.99c0-8.82-1.48-15.1-4.43-18.84-2.91-3.78-7.59-5.68-14.02-5.68-5.52,0-9.76,2.16-12.71,6.47-2.91,4.28-4.37,10.33-4.37,18.16s1.46,13.94,4.37,17.99c2.91,4.05,7.19,6.07,12.83,6.07h0ZM704.02-92.04c-9.19,0-16.46-2.8-21.79-8.4-5.3-5.6-7.95-13.37-7.95-23.32s2.46-17.99,7.38-23.89c4.96-5.9,11.6-8.85,19.92-8.85,7.79,0,13.96,2.57,18.5,7.72,4.54,5.11,6.81,11.86,6.81,20.26v5.96h-42.85c.19,7.3,2.02,12.84,5.5,16.63,3.52,3.78,8.46,5.68,14.81,5.68,6.7,0,13.32-1.4,19.86-4.2v8.4c-3.33,1.44-6.49,2.46-9.48,3.06-2.95.64-6.53.96-10.73.96h0ZM701.46-148.62c-4.99,0-8.99,1.63-11.97,4.88-2.95,3.25-4.69,7.76-5.22,13.51h32.52c0-5.94-1.32-10.48-3.97-13.62-2.65-3.18-6.43-4.77-11.35-4.77h0ZM785.51-93.17v-40.24c0-5.07-1.15-8.85-3.46-11.35-2.31-2.5-5.92-3.75-10.84-3.75-6.51,0-11.27,1.76-14.3,5.28-3.03,3.52-4.54,9.33-4.54,17.42v32.63h-9.42v-62.2h7.66l1.53,8.51h.45c1.93-3.06,4.63-5.43,8.12-7.09,3.48-1.7,7.36-2.55,11.63-2.55,7.49,0,13.13,1.82,16.91,5.45,3.78,3.59,5.67,9.36,5.67,17.31v40.58h-9.42Z"/>
      <path d="M213.24-93.17l-3.35-8.63h-.45c-2.91,3.67-5.92,6.22-9.02,7.66-3.06,1.4-7.07,2.1-12.03,2.1-6.09,0-10.9-1.74-14.41-5.22-3.48-3.48-5.22-8.44-5.22-14.87s2.35-11.69,7.04-14.87c4.73-3.22,11.84-4.99,21.34-5.33l11.01-.34v-2.78c0-6.43-3.29-9.65-9.87-9.65-5.07,0-11.03,1.53-17.88,4.6l-5.73-11.69c7.3-3.82,15.4-5.73,24.29-5.73s15.04,1.85,19.58,5.56c4.54,3.71,6.81,9.35,6.81,16.91v42.28h-12.09ZM208.13-122.57l-6.7.23c-5.03.15-8.78,1.06-11.24,2.72-2.46,1.66-3.69,4.2-3.69,7.6,0,4.88,2.8,7.32,8.4,7.32,4.01,0,7.21-1.15,9.59-3.46,2.42-2.31,3.63-5.37,3.63-9.19v-5.22ZM288.09-93.17l-2.33-8.12h-.91c-1.85,2.95-4.48,5.24-7.89,6.87-3.4,1.59-7.28,2.38-11.63,2.38-7.45,0-13.07-1.99-16.85-5.96-3.78-4.01-5.68-9.76-5.68-17.25v-41.37h17.31v37.06c0,4.58.81,8.02,2.44,10.33,1.63,2.27,4.22,3.4,7.77,3.4,4.84,0,8.34-1.61,10.5-4.82,2.16-3.25,3.23-8.63,3.23-16.12v-29.85h17.31v63.45h-13.28ZM336.84-93.17h-17.31v-88.3h17.31v88.3ZM381.73-105.83c3.03,0,6.66-.66,10.9-1.99v12.88c-4.31,1.93-9.61,2.89-15.89,2.89-6.92,0-11.97-1.74-15.15-5.22-3.14-3.52-4.71-8.78-4.71-15.78v-30.59h-8.29v-7.32l9.53-5.79,4.99-13.39h11.07v13.51h17.76v13h-17.76v30.59c0,2.46.68,4.28,2.04,5.45,1.4,1.17,3.23,1.76,5.5,1.76h0Z"/>
      <path d="M51.98-188.61h-15.32s41.13,115.17,41.13,115.17h14.52l41.13-115.17h-15.16l-25.97,73.87c-1.72,4.73-3.17,9.19-4.35,13.39-1.18,4.09-2.15,8.01-2.9,11.77-.75-3.76-1.72-7.74-2.9-11.94-1.18-4.19-2.64-8.71-4.36-13.55l-25.81-73.55h0Z"/>
    </g>
    <path d="M0,0"/>
    <path d="M304.87,145.51c5.23,0,9.04,1.03,11.43,3.08s3.59,4.95,3.59,8.68c0,2.2-.5,4.28-1.51,6.22-.97,1.9-2.63,3.45-4.99,4.65-2.32,1.2-5.47,1.79-9.47,1.79h-4.59v15.57h-5.04v-40h10.59ZM304.42,149.82h-5.1v15.8h4.03c3.81,0,6.65-.62,8.52-1.85,1.87-1.23,2.8-3.32,2.8-6.27,0-2.58-.82-4.5-2.47-5.77-1.64-1.27-4.24-1.9-7.79-1.9h0ZM338.88,154.98c3.66,0,6.37.8,8.12,2.41,1.76,1.61,2.63,4.16,2.63,7.68v20.45h-3.59l-.95-4.26h-.22c-1.31,1.64-2.69,2.86-4.15,3.64-1.42.78-3.4,1.18-5.94,1.18-2.73,0-4.99-.71-6.78-2.13-1.79-1.46-2.69-3.72-2.69-6.78s1.18-5.29,3.53-6.89c2.35-1.64,5.98-2.54,10.87-2.69l5.1-.17v-1.79c0-2.5-.54-4.24-1.62-5.21-1.08-.97-2.61-1.46-4.59-1.46-1.57,0-3.06.24-4.48.73-1.42.45-2.75.97-3.98,1.57l-1.51-3.7c1.31-.71,2.86-1.31,4.65-1.79,1.79-.52,3.66-.78,5.6-.78h0ZM340.33,171c-3.74.15-6.33.75-7.79,1.79-1.42,1.05-2.13,2.52-2.13,4.43,0,1.68.5,2.91,1.51,3.7,1.05.78,2.37,1.18,3.98,1.18,2.54,0,4.65-.69,6.33-2.07,1.68-1.42,2.52-3.59,2.52-6.5v-2.69l-4.43.17ZM378.49,177.22c0,2.91-1.08,5.12-3.25,6.61-2.17,1.49-5.08,2.24-8.74,2.24-2.09,0-3.9-.17-5.43-.5-1.49-.34-2.82-.8-3.98-1.4v-4.48c1.2.6,2.63,1.16,4.31,1.68,1.72.49,3.45.73,5.21.73,2.5,0,4.31-.39,5.43-1.18,1.12-.82,1.68-1.9,1.68-3.25,0-.75-.21-1.42-.62-2.02-.41-.6-1.16-1.2-2.24-1.79-1.05-.6-2.56-1.27-4.54-2.02-1.94-.75-3.6-1.49-4.99-2.24-1.38-.75-2.45-1.64-3.19-2.69s-1.12-2.39-1.12-4.03c0-2.54,1.03-4.5,3.08-5.88,2.09-1.38,4.82-2.07,8.18-2.07,1.83,0,3.53.19,5.1.56,1.61.34,3.1.82,4.48,1.46l-1.68,3.92c-1.27-.52-2.6-.97-3.98-1.34-1.38-.37-2.8-.56-4.26-.56-2.02,0-3.57.34-4.65,1.01-1.05.63-1.57,1.51-1.57,2.63,0,.82.24,1.53.73,2.13.49.56,1.29,1.12,2.41,1.68,1.16.52,2.69,1.16,4.59,1.9,1.9.71,3.53,1.44,4.87,2.18,1.34.75,2.37,1.66,3.08,2.75.71,1.05,1.06,2.37,1.06,3.98h0ZM405.32,177.22c0,2.91-1.08,5.12-3.25,6.61s-5.08,2.24-8.74,2.24c-2.09,0-3.9-.17-5.43-.5-1.49-.34-2.82-.8-3.98-1.4v-4.48c1.2.6,2.63,1.16,4.31,1.68,1.72.49,3.45.73,5.21.73,2.5,0,4.31-.39,5.43-1.18,1.12-.82,1.68-1.9,1.68-3.25,0-.75-.21-1.42-.62-2.02-.41-.6-1.16-1.2-2.24-1.79-1.05-.6-2.56-1.27-4.54-2.02-1.94-.75-3.6-1.49-4.99-2.24-1.38-.75-2.45-1.64-3.19-2.69s-1.12-2.39-1.12-4.03c0-2.54,1.03-4.5,3.08-5.88,2.09-1.38,4.82-2.07,8.18-2.07,1.83,0,3.53.19,5.1.56,1.61.34,3.1.82,4.48,1.46l-1.68,3.92c-1.27-.52-2.6-.97-3.98-1.34-1.38-.37-2.8-.56-4.26-.56-2.02,0-3.57.34-4.65,1.01-1.05.63-1.57,1.51-1.57,2.63,0,.82.24,1.53.73,2.13.49.56,1.29,1.12,2.41,1.68,1.16.52,2.69,1.16,4.59,1.9,1.9.71,3.53,1.44,4.87,2.18,1.34.75,2.37,1.66,3.08,2.75.71,1.05,1.06,2.37,1.06,3.98h0ZM431.99,168.54c-.49-1.53-.92-3.03-1.29-4.48-.34-1.49-.6-2.65-.78-3.47h-.22c-.15.82-.39,1.98-.73,3.47-.34,1.46-.77,2.97-1.29,4.54l-5.38,16.86h-5.6l-8.24-30.03h5.1l4.15,16.02c.41,1.61.8,3.23,1.18,4.87.37,1.64.63,3.01.78,4.09h.22c.15-.63.32-1.42.5-2.35.22-.93.47-1.9.73-2.91.26-1.05.52-1.98.78-2.8l5.32-16.92h5.38l5.15,16.92c.41,1.27.8,2.65,1.18,4.15.41,1.49.69,2.78.84,3.87h.22c.11-.93.35-2.22.73-3.87.41-1.64.84-3.32,1.29-5.04l4.2-16.02h5.04l-8.35,30.03h-5.77l-5.15-16.92ZM482.75,170.44c0,4.97-1.27,8.81-3.81,11.54-2.5,2.73-5.9,4.09-10.2,4.09-2.65,0-5.02-.6-7.12-1.79-2.05-1.23-3.68-3.01-4.87-5.32-1.2-2.35-1.79-5.19-1.79-8.52,0-4.97,1.25-8.8,3.75-11.49s5.9-4.03,10.2-4.03c2.73,0,5.12.62,7.17,1.85,2.09,1.2,3.72,2.95,4.87,5.27,1.2,2.28,1.79,5.08,1.79,8.4h0ZM460.06,170.44c0,3.55.69,6.37,2.07,8.46,1.42,2.05,3.66,3.08,6.72,3.08s5.25-1.03,6.67-3.08c1.42-2.09,2.13-4.91,2.13-8.46s-.71-6.33-2.13-8.35c-1.42-2.02-3.66-3.03-6.72-3.03s-5.29,1.01-6.67,3.03c-1.38,2.02-2.07,4.8-2.07,8.35ZM504.55,154.92c.56,0,1.16.04,1.79.11.67.04,1.25.11,1.74.22l-.62,4.54c-.49-.11-1.03-.21-1.62-.28-.56-.07-1.1-.11-1.62-.11-1.53,0-2.97.43-4.31,1.29-1.34.82-2.43,2-3.25,3.53-.78,1.49-1.18,3.25-1.18,5.27v16.02h-4.93v-30.03h4.03l.56,5.49h.22c.97-1.64,2.22-3.06,3.75-4.26,1.53-1.2,3.34-1.79,5.43-1.79h0ZM523.2,186.07c-3.74,0-6.72-1.29-8.96-3.87-2.24-2.61-3.36-6.5-3.36-11.65s1.12-9.04,3.36-11.65c2.28-2.65,5.29-3.98,9.02-3.98,2.32,0,4.2.43,5.66,1.29,1.49.86,2.71,1.9,3.64,3.14h.34c-.04-.49-.11-1.2-.22-2.13-.07-.97-.11-1.74-.11-2.3v-11.99h4.93v42.58h-3.98l-.73-4.03h-.22c-.9,1.27-2.09,2.35-3.59,3.25-1.49.9-3.42,1.34-5.77,1.34h0ZM523.99,181.98c3.17,0,5.4-.86,6.67-2.58,1.31-1.76,1.96-4.39,1.96-7.9v-.9c0-3.74-.62-6.59-1.85-8.57-1.23-2.02-3.51-3.03-6.84-3.03-2.65,0-4.65,1.06-5.99,3.19-1.31,2.09-1.96,4.91-1.96,8.46s.65,6.37,1.96,8.35c1.34,1.98,3.36,2.97,6.05,2.97h0ZM579.9,185.51l-13.17-35.07h-.22c.11,1.16.21,2.73.28,4.71.07,1.94.11,3.98.11,6.11v24.26h-4.65v-40h7.45l12.33,32.77h.22l12.55-32.77h7.4v40h-4.99v-24.6c0-1.94.04-3.87.11-5.77.11-1.9.21-3.45.28-4.65h-.22l-13.33,35.02h-4.15ZM623.77,154.98c3.66,0,6.37.8,8.12,2.41s2.63,4.16,2.63,7.68v20.45h-3.59l-.95-4.26h-.22c-1.31,1.64-2.69,2.86-4.15,3.64-1.42.78-3.4,1.18-5.94,1.18-2.73,0-4.99-.71-6.78-2.13-1.79-1.46-2.69-3.72-2.69-6.78s1.18-5.29,3.53-6.89c2.35-1.64,5.98-2.54,10.87-2.69l5.1-.17v-1.79c0-2.5-.54-4.24-1.62-5.21-1.08-.97-2.61-1.46-4.59-1.46-1.57,0-3.06.24-4.48.73-1.42.45-2.75.97-3.98,1.57l-1.51-3.7c1.31-.71,2.86-1.31,4.65-1.79,1.79-.52,3.66-.78,5.6-.78h0ZM625.23,171c-3.74.15-6.33.75-7.79,1.79-1.42,1.05-2.13,2.52-2.13,4.43,0,1.68.5,2.91,1.51,3.7,1.05.78,2.37,1.18,3.98,1.18,2.54,0,4.65-.69,6.33-2.07,1.68-1.42,2.52-3.59,2.52-6.5v-2.69l-4.43.17ZM658.28,154.92c3.59,0,6.29.88,8.12,2.63,1.83,1.72,2.75,4.52,2.75,8.4v19.55h-4.87v-19.22c0-4.82-2.24-7.23-6.72-7.23-3.32,0-5.62.93-6.89,2.8-1.27,1.87-1.9,4.56-1.9,8.07v15.57h-4.93v-30.03h3.98l.73,4.09h.28c.97-1.57,2.32-2.73,4.03-3.47,1.72-.78,3.53-1.18,5.43-1.18h0ZM689.82,154.98c3.66,0,6.37.8,8.12,2.41s2.63,4.16,2.63,7.68v20.45h-3.59l-.95-4.26h-.22c-1.31,1.64-2.69,2.86-4.15,3.64-1.42.78-3.4,1.18-5.94,1.18-2.73,0-4.99-.71-6.78-2.13-1.79-1.46-2.69-3.72-2.69-6.78s1.18-5.29,3.53-6.89c2.35-1.64,5.98-2.54,10.87-2.69l5.1-.17v-1.79c0-2.5-.54-4.24-1.62-5.21s-2.61-1.46-4.59-1.46c-1.57,0-3.06.24-4.48.73-1.42.45-2.75.97-3.98,1.57l-1.51-3.7c1.31-.71,2.86-1.31,4.65-1.79,1.79-.52,3.66-.78,5.6-.78h0ZM691.28,171c-3.74.15-6.33.75-7.79,1.79-1.42,1.05-2.13,2.52-2.13,4.43,0,1.68.5,2.91,1.51,3.7,1.05.78,2.37,1.18,3.98,1.18,2.54,0,4.65-.69,6.33-2.07,1.68-1.42,2.52-3.59,2.52-6.5v-2.69l-4.43.17ZM720.53,154.92c1.98,0,3.75.37,5.32,1.12,1.61.75,2.97,1.89,4.09,3.42h.28l.67-3.98h3.92v30.53c0,4.3-1.1,7.53-3.31,9.69-2.17,2.17-5.55,3.25-10.14,3.25s-8.01-.63-10.81-1.9v-4.54c2.95,1.57,6.65,2.35,11.09,2.35,2.58,0,4.59-.77,6.05-2.3,1.49-1.49,2.24-3.55,2.24-6.16v-1.18c0-.45.02-1.08.06-1.9.04-.86.07-1.46.11-1.79h-.22c-2.02,3.03-5.12,4.54-9.3,4.54-3.88,0-6.93-1.36-9.13-4.09-2.17-2.73-3.25-6.54-3.25-11.43s1.08-8.57,3.25-11.37c2.2-2.84,5.23-4.26,9.08-4.26h0ZM721.2,159.07c-2.5,0-4.44,1.01-5.83,3.03-1.38,1.98-2.07,4.82-2.07,8.52s.67,6.54,2.02,8.52c1.38,1.94,3.38,2.91,5.99,2.91,3.03,0,5.23-.8,6.61-2.41,1.38-1.64,2.07-4.28,2.07-7.9v-1.18c0-4.11-.71-7.04-2.13-8.8-1.42-1.79-3.64-2.69-6.67-2.69h0ZM755.94,154.92c2.58,0,4.78.56,6.61,1.68,1.87,1.12,3.29,2.71,4.26,4.76,1.01,2.02,1.51,4.39,1.51,7.12v2.97h-20.56c.07,3.4.93,5.99,2.58,7.79,1.68,1.76,4.02,2.63,7,2.63,1.9,0,3.59-.17,5.04-.5,1.49-.37,3.03-.9,4.59-1.57v4.31c-1.53.67-3.04,1.16-4.54,1.46-1.49.34-3.27.5-5.32.5-2.84,0-5.36-.58-7.56-1.74-2.17-1.16-3.87-2.88-5.1-5.15-1.2-2.32-1.79-5.14-1.79-8.46s.54-6.11,1.62-8.46c1.12-2.35,2.67-4.16,4.65-5.43,2.02-1.27,4.35-1.9,7-1.9h0ZM755.88,158.96c-2.35,0-4.22.77-5.6,2.3-1.34,1.49-2.15,3.59-2.41,6.27h15.29c-.04-2.54-.63-4.59-1.79-6.16-1.16-1.61-2.99-2.41-5.49-2.41h0ZM789.94,154.92c.56,0,1.16.04,1.79.11.67.04,1.25.11,1.74.22l-.62,4.54c-.49-.11-1.03-.21-1.62-.28-.56-.07-1.1-.11-1.62-.11-1.53,0-2.97.43-4.31,1.29-1.34.82-2.43,2-3.25,3.53-.78,1.49-1.18,3.25-1.18,5.27v16.02h-4.93v-30.03h4.03l.56,5.49h.22c.97-1.64,2.22-3.06,3.75-4.26,1.53-1.2,3.34-1.79,5.43-1.79h0Z"/>
  </g>
  <g id="_레이어_2" data-name="레이어_2">
    <g>
      <g>
        <path class="st0" d="M185.81,34.97l-63.4-19.86c-11.82-3.77-25.07,4.27-29.34,17.82l-17.82,56.32c-4.26,13.7,1.9,27.91,13.72,31.52l63.4,20.04c11.99,3.79,25.23-4.25,29.5-17.99l17.82-56.14c4.24-13.72-1.91-27.89-13.89-31.69h0ZM191.5,61.95l-19.08,60.09c-2.37,7.71-10.73,11.83-18.45,9.45l-60.72-19.22c-7.88-2.38-12.29-10.73-9.78-18.3l18.93-60.09c2.36-7.73,10.71-11.98,18.62-9.47l60.7,19.11c7.72,2.51,12.15,10.71,9.78,18.44h0Z"/>
        <g>
          <path class="st0" d="M139.97,89.89c1.74-5.62-8.93-10.67-12.54-13.56-6.48-4.93-8.23-12.5-6.3-19.29-1.05,3.42-2.58,9.37-2.78,10.84-.81,6.03,1.24,12.31,6.88,16.58,2.56,2.05,8.66,5.18,11.38,8.85,1.59-.67,2.88-1.79,3.36-3.42Z"/>
          <path class="st0" d="M121.41,56.13c.07-.21.13-.42.2-.64-.07.19-.13.4-.2.64Z"/>
          <path class="st0" d="M138.52,108.21c-4.17.76-9.51-.42-13.27-1.86-5.04-1.9-16.88-10.55-17.74-13.29l-2.2,8.13c.85,2.75,12.7,11.4,17.72,13.3,3.77,1.43,9.1,2.59,13.29,1.85,4.34-.85,9.09-2.15,12.27-5.18,1.87-1.9,4.91-6.51,5.63-9.24.6-1.91.97-3.73,1.09-5.43-1.27,2.45-3.19,5.2-4.51,6.53-3.18,3.04-7.94,4.33-12.28,5.18Z"/>
          <path class="st0" d="M121.88,54.87c-.06.12-.11.25-.19.4.07-.19.16-.35.22-.52-.02.04-.03.08-.04.12h0Z"/>
          <path class="st0" d="M142.96,65.71c3.9,1.14,7.36,3.59,10.39,7.65l9.96-10.26c2.1-7.67.48-1.16,2.21-8.11l-9.96,10.24c-3.03-4.06-6.48-6.49-10.39-7.65-6.27-2.05-8.8,4-5.67,7.83.97-.19,2.13-.13,3.46.31h0Z"/>
          <path class="st0" d="M121.62,55.49c.03-.06.05-.15.07-.21-.03.08-.05.15-.07.21Z"/>
          <path class="st0" d="M121.12,57.04c.1-.33.19-.64.29-.91-.1.29-.2.6-.29.91Z"/>
        </g>
      </g>
      <g>
        <path class="st2" d="M318.26,31.37h-54.3c-11.54.01-20.87,9.34-20.87,20.88v18.79c0,11.53,9.33,20.88,20.87,20.88h49.27v18.78h-44.27v-6.26c0-2.31-1.84-4.18-4.16-4.18h-17.54c-2.32,0-4.18,1.88-4.18,4.18v6.26c0,11.53,9.33,20.88,20.87,20.88h54.3c11.5,0,20.88-9.35,20.88-20.88v-18.79c-.02-11.52-9.38-20.87-20.88-20.87h-49.29v-18.79h44.27v6.26c0,2.31,1.85,4.18,4.17,4.18h17.54c2.3,0,4.19-1.87,4.19-4.18v-6.26c0-11.53-9.38-20.88-20.88-20.88h0Z"/>
        <path class="st2" d="M459.89,31.36h-87.66c-2.33,0-4.18,1.87-4.18,4.18v12.53c0,2.31,1.85,4.18,4.18,4.18h30.88v75.16c0,2.31,1.86,4.18,4.19,4.18h17.52c2.33,0,4.18-1.87,4.18-4.18V52.23h30.9c2.32,0,4.19-1.87,4.19-4.18v-12.53c0-2.31-1.88-4.18-4.19-4.18h0Z"/>
        <path class="st2" d="M585.74,31.36h-88.49c-2.32,0-4.18,1.87-4.18,4.18v91.86c0,2.31,1.86,4.18,4.18,4.18h88.49c2.35,0,4.18-1.87,4.18-4.18v-12.52c0-2.31-1.84-4.18-4.18-4.18h-66.76v-18.8h66.76c2.35,0,4.18-1.87,4.18-4.17v-12.53c0-2.3-1.84-4.18-4.18-4.18h-66.76v-18.79h66.76c2.35,0,4.18-1.87,4.18-4.18v-12.53c0-2.31-1.84-4.18-4.18-4.18h0Z"/>
        <path class="st2" d="M724.78,124.35l-47.55-45.43c-.49-.38-.81-.97-.81-1.63,0-.55.23-1.03.59-1.41l41.46-37.3h-.04c.82-.76,1.35-1.84,1.35-3.05,0-2.3-1.88-4.18-4.19-4.18h-22.9c-1.11,0-2.11.44-2.86,1.14h0l-38.11,34.36h-7.05v-31.33c0-2.31-1.84-4.18-4.16-4.18h-17.54c-2.31,0-4.16,1.87-4.16,4.18v91.86c0,2.31,1.85,4.18,4.16,4.18h17.54c2.32,0,4.16-1.87,4.16-4.18v-39.67h6.47l44.87,42.61s.04.03.06.04l.06.07c.78.7,1.75,1.14,2.87,1.14h22.91c2.29,0,4.18-1.87,4.18-4.18,0-1.2-.54-2.28-1.34-3.04h.04Z"/>
      </g>
    </g>
    <path d="M237.49,145.51c5.23,0,9.04,1.03,11.43,3.08s3.59,4.95,3.59,8.68c0,2.2-.5,4.28-1.51,6.22-.97,1.9-2.63,3.45-4.99,4.65-2.32,1.2-5.47,1.79-9.47,1.79h-4.59v15.57h-5.04v-40h10.59ZM237.04,149.82h-5.1v15.8h4.03c3.81,0,6.65-.62,8.52-1.85,1.87-1.23,2.8-3.32,2.8-6.27,0-2.58-.82-4.5-2.47-5.77-1.64-1.27-4.24-1.9-7.79-1.9h0ZM271.5,154.98c3.66,0,6.37.8,8.12,2.41,1.76,1.61,2.63,4.16,2.63,7.68v20.45h-3.59l-.95-4.26h-.22c-1.31,1.64-2.69,2.86-4.15,3.64-1.42.78-3.4,1.18-5.94,1.18-2.73,0-4.99-.71-6.78-2.13-1.79-1.46-2.69-3.72-2.69-6.78s1.18-5.29,3.53-6.89c2.35-1.64,5.98-2.54,10.87-2.69l5.1-.17v-1.79c0-2.5-.54-4.24-1.62-5.21-1.08-.97-2.61-1.46-4.59-1.46-1.57,0-3.06.24-4.48.73-1.42.45-2.75.97-3.98,1.57l-1.51-3.7c1.31-.71,2.86-1.31,4.65-1.79,1.79-.52,3.66-.78,5.6-.78h0ZM272.95,171c-3.74.15-6.33.75-7.79,1.79-1.42,1.05-2.13,2.52-2.13,4.43,0,1.68.5,2.91,1.51,3.7,1.05.78,2.37,1.18,3.98,1.18,2.54,0,4.65-.69,6.33-2.07,1.68-1.42,2.52-3.59,2.52-6.5v-2.69l-4.43.17ZM311.11,177.22c0,2.91-1.08,5.12-3.25,6.61-2.17,1.49-5.08,2.24-8.74,2.24-2.09,0-3.9-.17-5.43-.5-1.49-.34-2.82-.8-3.98-1.4v-4.48c1.2.6,2.63,1.16,4.31,1.68,1.72.49,3.45.73,5.21.73,2.5,0,4.31-.39,5.43-1.18,1.12-.82,1.68-1.9,1.68-3.25,0-.75-.21-1.42-.62-2.02-.41-.6-1.16-1.2-2.24-1.79-1.05-.6-2.56-1.27-4.54-2.02-1.94-.75-3.6-1.49-4.99-2.24-1.38-.75-2.45-1.64-3.19-2.69s-1.12-2.39-1.12-4.03c0-2.54,1.03-4.5,3.08-5.88,2.09-1.38,4.82-2.07,8.18-2.07,1.83,0,3.53.19,5.1.56,1.61.34,3.1.82,4.48,1.46l-1.68,3.92c-1.27-.52-2.6-.97-3.98-1.34-1.38-.37-2.8-.56-4.26-.56-2.02,0-3.57.34-4.65,1.01-1.05.63-1.57,1.51-1.57,2.63,0,.82.24,1.53.73,2.13.49.56,1.29,1.12,2.41,1.68,1.16.52,2.69,1.16,4.59,1.9,1.9.71,3.53,1.44,4.87,2.18,1.34.75,2.37,1.66,3.08,2.75.71,1.05,1.06,2.37,1.06,3.98h0ZM337.94,177.22c0,2.91-1.08,5.12-3.25,6.61s-5.08,2.24-8.74,2.24c-2.09,0-3.9-.17-5.43-.5-1.49-.34-2.82-.8-3.98-1.4v-4.48c1.2.6,2.63,1.16,4.31,1.68,1.72.49,3.45.73,5.21.73,2.5,0,4.31-.39,5.43-1.18,1.12-.82,1.68-1.9,1.68-3.25,0-.75-.21-1.42-.62-2.02-.41-.6-1.16-1.2-2.24-1.79-1.05-.6-2.56-1.27-4.54-2.02-1.94-.75-3.6-1.49-4.99-2.24-1.38-.75-2.45-1.64-3.19-2.69s-1.12-2.39-1.12-4.03c0-2.54,1.03-4.5,3.08-5.88,2.09-1.38,4.82-2.07,8.18-2.07,1.83,0,3.53.19,5.1.56,1.61.34,3.1.82,4.48,1.46l-1.68,3.92c-1.27-.52-2.6-.97-3.98-1.34-1.38-.37-2.8-.56-4.26-.56-2.02,0-3.57.34-4.65,1.01-1.05.63-1.57,1.51-1.57,2.63,0,.82.24,1.53.73,2.13.49.56,1.29,1.12,2.41,1.68,1.16.52,2.69,1.16,4.59,1.9,1.9.71,3.53,1.44,4.87,2.18,1.34.75,2.37,1.66,3.08,2.75.71,1.05,1.06,2.37,1.06,3.98h0ZM364.61,168.54c-.49-1.53-.92-3.03-1.29-4.48-.34-1.49-.6-2.65-.78-3.47h-.22c-.15.82-.39,1.98-.73,3.47-.34,1.46-.77,2.97-1.29,4.54l-5.38,16.86h-5.6l-8.24-30.03h5.1l4.15,16.02c.41,1.61.8,3.23,1.18,4.87.37,1.64.63,3.01.78,4.09h.22c.15-.63.32-1.42.5-2.35.22-.93.47-1.9.73-2.91.26-1.05.52-1.98.78-2.8l5.32-16.92h5.38l5.15,16.92c.41,1.27.8,2.65,1.18,4.15.41,1.49.69,2.78.84,3.87h.22c.11-.93.35-2.22.73-3.87.41-1.64.84-3.32,1.29-5.04l4.2-16.02h5.04l-8.35,30.03h-5.77l-5.15-16.92ZM415.37,170.44c0,4.97-1.27,8.81-3.81,11.54-2.5,2.73-5.9,4.09-10.2,4.09-2.65,0-5.02-.6-7.12-1.79-2.05-1.23-3.68-3.01-4.87-5.32-1.2-2.35-1.79-5.19-1.79-8.52,0-4.97,1.25-8.8,3.75-11.49s5.9-4.03,10.2-4.03c2.73,0,5.12.62,7.17,1.85,2.09,1.2,3.72,2.95,4.87,5.27,1.2,2.28,1.79,5.08,1.79,8.4h0ZM392.68,170.44c0,3.55.69,6.37,2.07,8.46,1.42,2.05,3.66,3.08,6.72,3.08s5.25-1.03,6.67-3.08c1.42-2.09,2.13-4.91,2.13-8.46s-.71-6.33-2.13-8.35c-1.42-2.02-3.66-3.03-6.72-3.03s-5.29,1.01-6.67,3.03c-1.38,2.02-2.07,4.8-2.07,8.35ZM437.17,154.92c.56,0,1.16.04,1.79.11.67.04,1.25.11,1.74.22l-.62,4.54c-.49-.11-1.03-.21-1.62-.28-.56-.07-1.1-.11-1.62-.11-1.53,0-2.97.43-4.31,1.29-1.34.82-2.43,2-3.25,3.53-.78,1.49-1.18,3.25-1.18,5.27v16.02h-4.93v-30.03h4.03l.56,5.49h.22c.97-1.64,2.22-3.06,3.75-4.26,1.53-1.2,3.34-1.79,5.43-1.79h0ZM455.82,186.07c-3.74,0-6.72-1.29-8.96-3.87-2.24-2.61-3.36-6.5-3.36-11.65s1.12-9.04,3.36-11.65c2.28-2.65,5.29-3.98,9.02-3.98,2.32,0,4.2.43,5.66,1.29,1.49.86,2.71,1.9,3.64,3.14h.34c-.04-.49-.11-1.2-.22-2.13-.07-.97-.11-1.74-.11-2.3v-11.99h4.93v42.58h-3.98l-.73-4.03h-.22c-.9,1.27-2.09,2.35-3.59,3.25-1.49.9-3.42,1.34-5.77,1.34h0ZM456.61,181.98c3.17,0,5.4-.86,6.67-2.58,1.31-1.76,1.96-4.39,1.96-7.9v-.9c0-3.74-.62-6.59-1.85-8.57-1.23-2.02-3.51-3.03-6.84-3.03-2.65,0-4.65,1.06-5.99,3.19-1.31,2.09-1.96,4.91-1.96,8.46s.65,6.37,1.96,8.35c1.34,1.98,3.36,2.97,6.05,2.97h0ZM512.52,185.51l-13.17-35.07h-.22c.11,1.16.21,2.73.28,4.71.07,1.94.11,3.98.11,6.11v24.26h-4.65v-40h7.45l12.33,32.77h.22l12.55-32.77h7.4v40h-4.99v-24.6c0-1.94.04-3.87.11-5.77.11-1.9.21-3.45.28-4.65h-.22l-13.33,35.02h-4.15ZM556.39,154.98c3.66,0,6.37.8,8.12,2.41s2.63,4.16,2.63,7.68v20.45h-3.59l-.95-4.26h-.22c-1.31,1.64-2.69,2.86-4.15,3.64-1.42.78-3.4,1.18-5.94,1.18-2.73,0-4.99-.71-6.78-2.13-1.79-1.46-2.69-3.72-2.69-6.78s1.18-5.29,3.53-6.89c2.35-1.64,5.98-2.54,10.87-2.69l5.1-.17v-1.79c0-2.5-.54-4.24-1.62-5.21-1.08-.97-2.61-1.46-4.59-1.46-1.57,0-3.06.24-4.48.73-1.42.45-2.75.97-3.98,1.57l-1.51-3.7c1.31-.71,2.86-1.31,4.65-1.79,1.79-.52,3.66-.78,5.6-.78h0ZM557.85,171c-3.74.15-6.33.75-7.79,1.79-1.42,1.05-2.13,2.52-2.13,4.43,0,1.68.5,2.91,1.51,3.7,1.05.78,2.37,1.18,3.98,1.18,2.54,0,4.65-.69,6.33-2.07,1.68-1.42,2.52-3.59,2.52-6.5v-2.69l-4.43.17ZM590.9,154.92c3.59,0,6.29.88,8.12,2.63,1.83,1.72,2.75,4.52,2.75,8.4v19.55h-4.87v-19.22c0-4.82-2.24-7.23-6.72-7.23-3.32,0-5.62.93-6.89,2.8-1.27,1.87-1.9,4.56-1.9,8.07v15.57h-4.93v-30.03h3.98l.73,4.09h.28c.97-1.57,2.32-2.73,4.03-3.47,1.72-.78,3.53-1.18,5.43-1.18h0ZM622.44,154.98c3.66,0,6.37.8,8.12,2.41s2.63,4.16,2.63,7.68v20.45h-3.59l-.95-4.26h-.22c-1.31,1.64-2.69,2.86-4.15,3.64-1.42.78-3.4,1.18-5.94,1.18-2.73,0-4.99-.71-6.78-2.13-1.79-1.46-2.69-3.72-2.69-6.78s1.18-5.29,3.53-6.89c2.35-1.64,5.98-2.54,10.87-2.69l5.1-.17v-1.79c0-2.5-.54-4.24-1.62-5.21s-2.61-1.46-4.59-1.46c-1.57,0-3.06.24-4.48.73-1.42.45-2.75.97-3.98,1.57l-1.51-3.7c1.31-.71,2.86-1.31,4.65-1.79,1.79-.52,3.66-.78,5.6-.78h0ZM623.9,171c-3.74.15-6.33.75-7.79,1.79-1.42,1.05-2.13,2.52-2.13,4.43,0,1.68.5,2.91,1.51,3.7,1.05.78,2.37,1.18,3.98,1.18,2.54,0,4.65-.69,6.33-2.07,1.68-1.42,2.52-3.59,2.52-6.5v-2.69l-4.43.17ZM653.15,154.92c1.98,0,3.75.37,5.32,1.12,1.61.75,2.97,1.89,4.09,3.42h.28l.67-3.98h3.92v30.53c0,4.3-1.1,7.53-3.31,9.69-2.17,2.17-5.55,3.25-10.14,3.25s-8.01-.63-10.81-1.9v-4.54c2.95,1.57,6.65,2.35,11.09,2.35,2.58,0,4.59-.77,6.05-2.3,1.49-1.49,2.24-3.55,2.24-6.16v-1.18c0-.45.02-1.08.06-1.9.04-.86.07-1.46.11-1.79h-.22c-2.02,3.03-5.12,4.54-9.3,4.54-3.88,0-6.93-1.36-9.13-4.09-2.17-2.73-3.25-6.54-3.25-11.43s1.08-8.57,3.25-11.37c2.2-2.84,5.23-4.26,9.08-4.26h0ZM653.82,159.07c-2.5,0-4.44,1.01-5.83,3.03-1.38,1.98-2.07,4.82-2.07,8.52s.67,6.54,2.02,8.52c1.38,1.94,3.38,2.91,5.99,2.91,3.03,0,5.23-.8,6.61-2.41,1.38-1.64,2.07-4.28,2.07-7.9v-1.18c0-4.11-.71-7.04-2.13-8.8-1.42-1.79-3.64-2.69-6.67-2.69h0ZM688.55,154.92c2.58,0,4.78.56,6.61,1.68,1.87,1.12,3.29,2.71,4.26,4.76,1.01,2.02,1.51,4.39,1.51,7.12v2.97h-20.56c.07,3.4.93,5.99,2.58,7.79,1.68,1.76,4.02,2.63,7,2.63,1.9,0,3.59-.17,5.04-.5,1.49-.37,3.03-.9,4.59-1.57v4.31c-1.53.67-3.04,1.16-4.54,1.46-1.49.34-3.27.5-5.32.5-2.84,0-5.36-.58-7.56-1.74-2.17-1.16-3.87-2.88-5.1-5.15-1.2-2.32-1.79-5.14-1.79-8.46s.54-6.11,1.62-8.46c1.12-2.35,2.67-4.16,4.65-5.43,2.02-1.27,4.35-1.9,7-1.9h0ZM688.5,158.96c-2.35,0-4.22.77-5.6,2.3-1.34,1.49-2.15,3.59-2.41,6.27h15.29c-.04-2.54-.63-4.59-1.79-6.16-1.16-1.61-2.99-2.41-5.49-2.41h0ZM722.56,154.92c.56,0,1.16.04,1.79.11.67.04,1.25.11,1.74.22l-.62,4.54c-.49-.11-1.03-.21-1.62-.28-.56-.07-1.1-.11-1.62-.11-1.53,0-2.97.43-4.31,1.29-1.34.82-2.43,2-3.25,3.53-.78,1.49-1.18,3.25-1.18,5.27v16.02h-4.93v-30.03h4.03l.56,5.49h.22c.97-1.64,2.22-3.06,3.75-4.26,1.53-1.2,3.34-1.79,5.43-1.79h0Z"/>
  </g>
</svg>