<?xml version="1.0" encoding="UTF-8"?>
<svg id="_레이어_2" data-name="레이어_2" xmlns="http://www.w3.org/2000/svg" version="1.1" viewBox="0 0 256 256">
  <!-- Generator: Adobe Illustrator 29.4.0, SVG Export Plug-In . SVG Version: 2.1.0 Build 152)  -->
  <defs>
    <style>
      .st0 {
        fill: #921a1d;
      }
    </style>
  </defs>
  <path class="st0" d="M224.68,42.03L97.88,2.3c-23.64-7.54-50.14,8.55-58.67,35.64L3.57,150.57c-8.52,27.4,3.79,55.82,27.45,63.04l126.79,40.08c23.98,7.58,50.45-8.51,59-35.99l35.63-112.28c8.48-27.45-3.81-55.78-27.77-63.39ZM236.04,95.98l-38.17,120.17c-4.75,15.42-21.45,23.65-36.91,18.9l-121.45-38.45c-15.77-4.75-24.59-21.45-19.56-36.6L57.83,39.83c4.72-15.46,21.42-23.97,37.24-18.94l121.41,38.22c15.44,5.03,24.29,21.42,19.56,36.88Z"/>
  <g>
    <path class="st0" d="M132.98,151.88c3.48-11.25-17.86-21.34-25.09-27.13-12.97-9.85-16.45-25.01-12.61-38.57-2.1,6.84-5.15,18.75-5.56,21.68-1.62,12.06,2.47,24.62,13.75,33.16,5.13,4.1,17.32,10.36,22.77,17.7,3.18-1.35,5.77-3.59,6.73-6.84Z"/>
    <path class="st0" d="M95.87,84.36c.13-.43.27-.85.4-1.28-.14.39-.27.81-.4,1.28Z"/>
    <path class="st0" d="M130.1,188.52c-8.34,1.51-19.03-.85-26.55-3.71-10.07-3.79-33.76-21.1-35.47-26.59l-4.4,16.27c1.7,5.49,25.4,22.8,35.44,26.59,7.54,2.86,18.2,5.18,26.57,3.71,8.68-1.7,18.18-4.29,24.54-10.36,3.73-3.79,9.82-13.03,11.27-18.47,1.2-3.83,1.93-7.46,2.19-10.86-2.53,4.91-6.38,10.4-9.03,13.07-6.36,6.07-15.89,8.66-24.56,10.36Z"/>
    <path class="st0" d="M96.8,81.85c-.12.23-.23.5-.37.81.14-.39.32-.7.45-1.05-.04.08-.06.16-.08.24Z"/>
    <path class="st0" d="M138.97,103.52c7.81,2.28,14.73,7.19,20.78,15.3l19.92-20.53c4.2-15.34.97-2.31,4.43-16.23l-19.92,20.48c-6.07-8.11-12.97-12.98-20.78-15.31-12.54-4.09-17.6,8-11.34,15.66,1.93-.38,4.25-.27,6.91.62Z"/>
    <path class="st0" d="M96.28,83.08c.05-.11.09-.31.15-.42-.05.15-.09.31-.15.42Z"/>
    <path class="st0" d="M95.29,86.17c.2-.66.39-1.27.59-1.82-.2.58-.41,1.2-.59,1.82Z"/>
  </g>
</svg>