<?xml version="1.0" encoding="utf-8"?>
<!-- Generator: Adobe Illustrator 29.4.0, SVG Export Plug-In . SVG Version: 9.03 Build 0)  -->
<svg version="1.0" xmlns="http://www.w3.org/2000/svg" xmlns:xlink="http://www.w3.org/1999/xlink" x="0px" y="0px"
	 viewBox="0 0 700 700" style="enable-background:new 0 0 700 700;" xml:space="preserve">
<style type="text/css">
	.st0{display:none;}
	.st1{display:inline;}
	.st2{fill:#921A1D;}
</style>
<g id="레이어_1" class="st0">
	<g transform="translate(0.000000,700.000000) scale(0.100000,-0.100000)" class="st1">
		<path d="M3455,6988c-26-15-34-27-135-193l-85-140l-49-3c-27-2-51,1-55,6c-7,11-154,173-212,234c-34,36-54,43-104,38
			c-41-4-71-52-120-195c-63-185-67-192-113-204c-20-6-40-11-44-11s-60,40-125,88c-198,147-224,157-280,105c-26-25-31-40-48-153
			c-10-69-19-135-21-147c-10-91-14-99-59-121l-43-21l-49,23c-151,73-260,124-278,130c-35,10-79-9-103-44s-24-69-7-341
			c4-55,2-59-31-88c-19-17-38-31-42-31s-86,20-182,44c-96,23-184,40-195,37c-39-12-56-28-69-64c-11-33-9-51,25-184
			c56-225,55-206,19-246l-31-36l-102,6c-56,4-144,7-194,7c-87,1-94-1-119-25c-44-45-39-76,48-257l78-163l-21-42c-12-23-22-43-23-44
			c-2-2-110-19-181-29c-27-3-59-8-70-10s-40-7-64-10c-58-7-77-18-96-54c-18-35-19-64-3-93c9-18,87-127,116-162c4-5,27-38,51-72
			c44-61,44-61,31-105l-13-44l-151-53c-83-29-168-63-188-74c-63-34-69-104-15-159c38-39,225-210,238-219c5-3,8-27,8-53
			c-3-55,7-47-184-161c-133-80-150-94-161-132c-11-40,17-100,51-114c6-2,74-42,151-89l141-85l1-50l1-50l-85-75
			C94,2910,70,2885,69,2854c-2-43,1-55,19-79c16-22,50-36,263-111l106-37l11-48l12-49l-83-112c-45-62-84-115-87-118s-16-20-29-38
			c-18-26-22-42-18-73c8-63,32-82,118-94c24-3,55-8,69-10c46-8,86-15,126-20c108-13,109-14,132-60l21-44l-49-101
			c-28-55-50-103-50-106s-13-32-29-64c-34-69-33-111,5-150c23-23,31-25,117-24c50,0,138,3,194,6l103,6l30-34c34-39,34-45,0-166
			c-10-37-17-68-15-68s-3-19-11-42c-8-24-17-59-20-78s-7-37-9-38c-8-9,21-69,39-82c39-28,58-29,156-5c8,2,69,18,135,34
			c66,17,123,31,127,31s23-14,42-31c34-30,35-32,31-92c-2-34-6-119-10-189l-6-127l29-32c46-51,78-46,268,45l160,76l42-22
			c43-24,45-28,57-133c4-27,8-57,10-65s7-37,10-65c18-141,32-170,91-181c45-8,62-1,156,69c46,34,100,73,121,87c20,14,37,28,37,33
			c0,4,7,7,15,7s15,5,15,10c0,13,15,13,63-1c44-12,45-14,114-208c49-143,81-191,123-193c65-3,54-11,220,171c47,51,87,97,88,102
			c5,14,86,11,104-3c9-7,56-78,103-158c48-79,94-150,103-157c42-32,99-28,132,10c23,26,170,266,170,277c0,20,40,40,80,40
			c32,0,47-6,62-23c25-29,164-182,205-225c25-26,39-33,70-34c44,0,77,16,92,47c6,11,33,85,61,165s54,152,59,160c4,8,29,21,54,28
			l46,13l135-101c157-116,173-125,219-116c57,11,76,47,92,176c4,30,8,64,10,75s9,54,15,96l12,76l43,21l43,21l44-21
			c309-150,326-154,377-104c25,25,26,31,25,129c-1,56-4,144-7,194l-5,92l34,31c19,16,38,30,42,30s86-20,182-44c180-44,198-45,243-12
			c35,27,36,64,1,201c-18,72-35,141-37,155c-3,14-8,37-12,51c-5,21,0,34,25,62l31,36l102-6c56-3,144-6,194-7c88-1,94,0,120,26
			c49,50,44,68-105,377l-21,43l21,42c11,22,21,42,22,43c1,2,80,14,174,28c192,28,213,34,236,67c38,54,25,81-131,291
			c-65,88-73,103-68,131c9,40,32,76,48,76c8,0,80,25,162,54c148,55,192,82,195,121c7,65-8,83-202,253l-78,67l3,50l2,50l144,87
			c79,48,155,96,167,107c43,37,44,102,2,141c-12,11-69,48-128,82c-184,108-186,110-189,162c-2,51-12,39,126,162
			c159,143,159,143,154,209c-4,38-54,70-191,118c-200,71-195,68-209,121l-11,46l104,140c58,77,108,150,111,161c10,30-2,84-23,102
			c-20,17-73,32-152,42c-30,4-64,9-75,11s-40,6-65,9c-102,12-107,14-126,58c-11,23-18,47-16,54s35,79,74,160c81,170,88,207,45,251
			c-26,26-32,27-120,26c-50,0-138-3-194-6l-103-6l-30,34c-35,40-35,33,15,228c42,163,44,183,21,222c-33,56-61,57-257,8
			c-96-24-177-44-181-44s-23,14-42,30l-35,31l6,112c4,62,7,149,7,194c1,77-1,84-26,110c-44,43-81,37-250-45c-81-39-153-72-161-74
			c-7-2-31,5-54,16c-44,19-45,23-58,131c-16,132-45,269-61,286c-22,24-79,35-110,20c-14-6-86-57-161-112l-135-101l-45,13
			c-52,14-49,9-122,213c-52,145-78,186-121,188c-48,2-59-2-92-34c-38-37-210-225-219-240c-3-5-28-8-55-6l-49,3l-96,158
			c-53,87-100,162-105,167C3548,6996,3476,7001,3455,6988z M3588,6346c121-64,148-234,50-322c-111-101-291-53-329,88
			c-37,138,72,266,214,252C3545,6361,3574,6353,3588,6346z M3211,5841c143-143,189-182,223-194c52-18,111-15,154,7
			c17,9,110,95,206,191c168,168,178,176,209,171c193-33,436-116,649-222l107-53l-11-38c-6-21-30-92-53-158c-24-66-88-248-143-405
			s-112-319-127-360c-14-41-71-201-125-355s-144-410-200-570c-56-159-131-371-165-470c-35-99-116-328-180-510
			c-105-298-237-686-248-732c-3-15-5-15-9-3c-3,8-51,150-106,315s-130,386-167,490c-37,105-84,240-105,300c-21,61-66,189-100,285
			s-93,263-130,370c-38,107-83,236-100,285c-18,50-63,178-100,285c-38,107-96,274-130,370s-65,186-70,200c-4,14-31,90-60,170
			c-28,80-62,177-75,215c-13,39-42,121-64,184c-23,62-41,119-41,125c0,11,172,99,275,141c140,58,421,141,483,144
			C3025,6020,3077,5974,3211,5841z M1661,4635c166-464,225-628,298-832c28-76,118-329,201-563s173-486,200-560s117-326,200-560
			c200-563,248-695,270-755c50-134,130-368,127-372c-17-16-516,152-550,186c-8,8-10,18-22,91c-3,25-9,59-12,75c-2,17-6,39-8,50
			c-25,176-45,277-62,312c-20,43-83,90-132,99c-29,6-205-13-306-32c-20-4-55-10-110-19c-121-20-117-20-161,27
			c-203,218-403,550-508,843c-24,69-74,231-82,270c-7,34-33,168-39,200c-3,17-8,48-10,70s-7,72-12,110c-8,73-7,425,1,460
			c2,11,5,37,5,57l1,37l216,108c223,112,273,147,300,211c30,74,20,109-103,352l-115,224l17,36c23,48,87,148,164,254
			c60,83,65,87,73,65C1507,5066,1579,4866,1661,4635z M5633,4925c41-60,84-129,97-153l24-42l-114-223c-112-217-114-224-115-289
			c0-58,4-71,31-109c34-47,45-54,312-188c132-67,181-96,180-109c0-9,3-48,8-87c14-125,7-471-11-560c-2-11-7-38-9-60
			c-28-216-128-529-239-750c-93-186-258-430-378-559l-56-60l-109,18c-60,10-116,20-125,21c-9,2-40,6-70,10s-72,11-94,16
			c-72,16-138,11-186-14c-67-35-94-85-114-202c-20-121-23-139-30-190c-3-22-8-51-10-65c-3-14-8-42-11-64c-9-57-12-75-18-84
			c-3-5-36-21-73-36c-37-16-81-34-98-41c-79-33-373-120-381-112c-4,4,10,54,26,92c7,16,100,276,198,555c11,30,88,246,172,480
			c176,493,507,1420,651,1825c55,154,104,290,109,302s21,57,35,100s30,87,34,98c19,46,54,144,142,393l94,263l27-33
			C5547,5050,5593,4986,5633,4925z M1076,4488c118-80,112-261-10-333c-83-48-175-37-242,30c-62,62-76,153-37,229
			C842,4521,976,4555,1076,4488z M6130,4496c127-63,140-251,23-334c-154-109-365,45-306,224c19,56,76,111,132,128
			C6035,4530,6071,4526,6130,4496z M5170,1513c19-11,49-41,65-68c25-40,30-58,29-105c-5-252-374-262-392-11
			C4860,1491,5026,1593,5170,1513z M2018,1521c164-84,142-323-34-370c-135-35-259,69-249,211C1743,1493,1900,1581,2018,1521z"/>
	</g>
</g>
<g id="레이어_2">
	<g>
		<path class="st2" d="M607.81,120.73L269.68,14.8c-63.04-20.1-133.7,22.8-156.47,95.03L18.19,410.19
			C-4.53,483.27,28.3,559.02,91.38,578.3L429.5,685.16c63.97,20.21,134.54-22.69,157.34-95.96l95.03-299.41
			c22.61-73.19-10.17-148.75-74.06-169.04V120.73z M638.13,264.63L536.37,585.09c-12.65,41.12-57.21,63.07-98.41,50.39
			L114.09,532.95c-42.05-12.68-65.55-57.21-52.16-97.59L162.9,114.9c12.57-41.23,57.1-63.92,99.31-50.5l323.76,101.9
			C627.14,179.69,650.76,223.4,638.13,264.63L638.13,264.63z"/>
		<g>
			<path class="st2" d="M363.29,413.65c9.27-30-47.61-56.88-66.89-72.34c-34.58-26.29-43.87-66.67-33.62-102.86
				c-5.62,18.24-13.74,49.98-14.81,57.81c-4.34,32.18,6.6,65.66,36.68,88.43c13.66,10.93,46.19,27.62,60.7,47.2
				C353.83,428.29,360.73,422.32,363.29,413.65z"/>
			<path class="st2" d="M264.34,233.6c0.35-1.15,0.71-2.26,1.09-3.41C265.07,231.23,264.72,232.34,264.34,233.6z"/>
			<path class="st2" d="M355.61,511.38c-22.25,4.04-50.75-2.26-70.79-9.9c-26.86-10.12-90.04-56.25-94.59-70.9l-11.73,43.38
				c4.53,14.64,67.73,60.81,94.51,70.92c20.1,7.64,48.54,13.8,70.87,9.87c23.15-4.53,48.48-11.45,65.42-27.62
				c9.95-10.12,26.18-34.74,30.05-49.27c3.19-10.2,5.15-19.91,5.84-28.96c-6.76,13.09-17.02,27.73-24.08,34.85
				C404.14,499.95,378.76,506.85,355.61,511.38z"/>
			<path class="st2" d="M266.82,226.92c-0.33,0.63-0.6,1.34-1.01,2.15c0.38-1.04,0.85-1.85,1.2-2.78c-0.11,0.22-0.16,0.41-0.22,0.63
				L266.82,226.92z"/>
			<path class="st2" d="M379.25,284.73c20.81,6.08,39.27,19.17,55.41,40.82l53.12-54.73c11.18-40.9,2.56-6.16,11.81-43.27
				l-53.12,54.62c-16.17-21.65-34.58-34.63-55.41-40.82c-33.46-10.91-46.93,21.35-30.24,41.75
				C365.97,282.05,372.16,282.38,379.25,284.73L379.25,284.73z"/>
			<path class="st2" d="M265.43,230.22c0.14-0.3,0.25-0.82,0.38-1.12C265.67,229.51,265.57,229.92,265.43,230.22z"/>
			<path class="st2" d="M262.78,238.45c0.52-1.75,1.04-3.41,1.55-4.85C263.82,235.15,263.25,236.79,262.78,238.45z"/>
		</g>
	</g>
</g>
</svg>
