<?xml version="1.0" encoding="UTF-8"?>
<svg id="_레이어_2" data-name="레이어_2" xmlns="http://www.w3.org/2000/svg" version="1.1" viewBox="0 0 1365.83 280.49">
  <!-- Generator: Adobe Illustrator 29.4.0, SVG Export Plug-In . SVG Version: 2.1.0 Build 152)  -->
  <defs>
    <style>
      .st0 {
        fill: #921a1d;
      }

      .st1 {
        fill: #1d1d1b;
      }
    </style>
  </defs>
  <g>
    <path class="st0" d="M263.98,56.17l-124-38.85c-23.12-7.37-49.03,8.36-57.38,34.85l-34.85,110.15c-8.33,26.8,3.71,54.58,26.84,61.65l124,39.19c23.46,7.41,49.34-8.32,57.7-35.19l34.85-109.8c8.29-26.84-3.73-54.55-27.16-61.99ZM275.09,108.94l-37.32,117.52c-4.64,15.08-20.98,23.13-36.09,18.48l-118.77-37.6c-15.42-4.65-24.04-20.98-19.13-35.79l37.03-117.52c4.61-15.12,20.94-23.44,36.42-18.52l118.73,37.37c15.1,4.91,23.76,20.94,19.13,36.06Z"/>
    <g>
      <path class="st0" d="M174.31,163.59c3.4-11-17.46-20.86-24.53-26.53-12.68-9.64-16.09-24.45-12.33-37.72-2.06,6.69-5.04,18.33-5.43,21.2-1.59,11.8,2.42,24.08,13.45,32.43,5.01,4.01,16.94,10.13,22.26,17.31,3.11-1.32,5.64-3.51,6.58-6.69Z"/>
      <path class="st0" d="M138.02,97.56c.13-.42.26-.83.4-1.25-.13.38-.26.79-.4,1.25Z"/>
      <path class="st0" d="M171.49,199.43c-8.16,1.48-18.61-.83-25.96-3.63-9.85-3.71-33.02-20.63-34.69-26l-4.3,15.91c1.66,5.37,24.84,22.3,34.66,26.01,7.37,2.8,17.8,5.06,25.99,3.62,8.49-1.66,17.78-4.2,23.99-10.13,3.65-3.71,9.6-12.74,11.02-18.07,1.17-3.74,1.89-7.3,2.14-10.62-2.48,4.8-6.24,10.17-8.83,12.78-6.22,5.94-15.53,8.47-24.02,10.13Z"/>
      <path class="st0" d="M138.93,95.11c-.12.23-.22.49-.37.79.14-.38.31-.68.44-1.02-.04.08-.06.15-.08.23Z"/>
      <path class="st0" d="M180.16,116.31c7.63,2.23,14.4,7.03,20.32,14.97l19.48-20.07c4.1-15,.94-2.26,4.33-15.87l-19.48,20.03c-5.93-7.94-12.68-12.7-20.32-14.97-12.27-4-17.21,7.83-11.09,15.31,1.89-.38,4.16-.26,6.76.6Z"/>
      <path class="st0" d="M138.42,96.32c.05-.11.09-.3.14-.41-.05.15-.09.3-.14.41Z"/>
      <path class="st0" d="M137.45,99.34c.19-.64.38-1.25.57-1.78-.19.57-.4,1.17-.57,1.78Z"/>
    </g>
  </g>
  <g>
    <path class="st1" d="M523.04,49.13h-106.2c-22.57.02-40.81,18.27-40.81,40.83v36.76c0,22.55,18.24,40.83,40.81,40.83h96.37v36.74h-86.58v-12.24c0-4.51-3.6-8.17-8.13-8.17h-34.3c-4.53,0-8.17,3.67-8.17,8.17v12.24c0,22.56,18.24,40.83,40.81,40.83h106.2c22.49,0,40.83-18.28,40.83-40.83v-36.76c-.03-22.53-18.34-40.82-40.83-40.82h-96.4v-36.76h86.58v12.25c0,4.51,3.62,8.17,8.15,8.17h34.3s0,0,0,0c4.5,0,8.2-3.65,8.2-8.17v-12.25c0-22.56-18.34-40.83-40.83-40.83Z"/>
    <path class="st1" d="M800.04,49.12h-171.45c-4.56,0-8.18,3.66-8.18,8.17v24.5c0,4.51,3.62,8.17,8.18,8.17h60.39v147c0,4.52,3.64,8.18,8.2,8.18h34.27c4.55,0,8.17-3.66,8.17-8.18V89.95h60.43c4.53,0,8.2-3.65,8.2-8.17v-24.5c0-4.51-3.67-8.17-8.2-8.17Z"/>
    <path class="st1" d="M1046.19,49.12h-173.08c-4.53,0-8.17,3.66-8.17,8.17v179.67c0,4.51,3.64,8.17,8.17,8.17h173.08c4.59,0,8.18-3.66,8.18-8.17v-24.49c0-4.51-3.59-8.17-8.18-8.17h-130.58v-36.77h130.58c4.59,0,8.18-3.65,8.18-8.16v-24.5c0-4.5-3.59-8.17-8.18-8.17h-130.58v-36.76h130.58c4.59,0,8.18-3.65,8.18-8.17v-24.5c0-4.51-3.59-8.17-8.18-8.17Z"/>
    <path class="st1" d="M1318.14,230.99l-93.01-88.85c-.96-.74-1.58-1.89-1.58-3.18,0-1.08.45-2.02,1.15-2.76l81.1-72.96h-.07c1.6-1.49,2.65-3.6,2.65-5.97,0-4.5-3.67-8.17-8.2-8.17h0s-44.78,0-44.78,0h0c-2.17,0-4.13.86-5.6,2.23h0s-74.54,67.2-74.54,67.2h-13.79v-61.27c0-4.51-3.6-8.17-8.13-8.17h-34.3c-4.51,0-8.13,3.66-8.13,8.17v179.66c0,4.52,3.62,8.18,8.13,8.18h34.3c4.53,0,8.13-3.66,8.13-8.18v-77.59h12.66l87.76,83.33s.08.06.11.07l.11.14c1.52,1.37,3.43,2.23,5.61,2.23h44.81c4.48,0,8.17-3.66,8.17-8.18,0-2.34-1.05-4.46-2.63-5.94h.06Z"/>
  </g>
</svg>